HIERARCHY
ROOT Hips
{
	OFFSET 0.000000 0.000000 0.000000
	CHANNELS 6 Xposition Yposition Zposition Zrotation Xrotation Yrotation
	JOINT RightUpLeg
	{
		OFFSET -9.711200 0.000000 0.000000
		CHANNELS 3 Zrotation Xrotation Yrotation
		JOINT RightLeg
		{
			OFFSET 0.000000 -42.071800 0.000000
			CHANNELS 3 Zrotation Xrotation Yrotation
			JOINT RightFoot
			{
				OFFSET 0.000000 -40.121000 0.000000
				CHANNELS 3 Zrotation Xrotation Yrotation
				JOINT RightToe
				{
					OFFSET 0.000000 -9.631400 3.100600
					CHANNELS 3 Zrotation Xrotation Yrotation
					JOINT RightToeEnd
					{
						OFFSET 0.000000 -4.048200 4.118000
						CHANNELS 3 Zrotation Xrotation Yrotation
						End Site
						{
						    OFFSET 0.000000 -3.505200 3.565600
						}
					}
				}
			}
		}
	}
	JOINT LeftUpLeg
	{
		OFFSET 9.711200 0.000000 0.000000
		CHANNELS 3 Zrotation Xrotation Yrotation
		JOINT LeftLeg
		{
			OFFSET 0.000000 -42.071800 0.000000
			CHANNELS 3 Zrotation Xrotation Yrotation
			JOINT LeftFoot
			{
				OFFSET 0.000000 -40.121000 0.000000
				CHANNELS 3 Zrotation Xrotation Yrotation
				JOINT LeftToe
				{
					OFFSET 0.000000 -9.631400 3.100600
					CHANNELS 3 Zrotation Xrotation Yrotation
					JOINT LeftToeEnd
					{
						OFFSET 0.000000 -4.048200 4.118000
						CHANNELS 3 Zrotation Xrotation Yrotation
						End Site
						{
						    OFFSET 0.000000 -3.505200 3.565600
						}
					}
				}
			}
		}
	}
	JOINT Spine
	{
		OFFSET 0.000000 14.595200 0.000000
		CHANNELS 3 Zrotation Xrotation Yrotation
		JOINT Spine1
		{
			OFFSET 0.000000 9.770300 0.000000
			CHANNELS 3 Zrotation Xrotation Yrotation
			JOINT Spine2
			{
				OFFSET 0.000000 14.330100 0.000000
				CHANNELS 3 Zrotation Xrotation Yrotation
				JOINT LeftShoulder
				{
					OFFSET 2.000000 14.330100 0.000000
					CHANNELS 3 Zrotation Xrotation Yrotation
					JOINT LeftArm
					{
						OFFSET 14.369100 0.000000 0.000000
						CHANNELS 3 Zrotation Xrotation Yrotation
						JOINT LeftForeArm
						{
							OFFSET 0.000000 -27.196400 0.000000
							CHANNELS 3 Zrotation Xrotation Yrotation
							JOINT LeftHand
							{
								OFFSET 0.000000 -24.849000 0.000000
								CHANNELS 3 Zrotation Xrotation Yrotation
								JOINT LeftFinger0
								{
									OFFSET 0.000000 -7.367300 0.000000
									CHANNELS 3 Zrotation Xrotation Yrotation
									End Site
									{
									    OFFSET 0.000000 -5.000000 0.000000
									}
								}
							}
						}
					}
				}
				JOINT RightShoulder
				{
					OFFSET -2.000000 14.330100 0.000000
					CHANNELS 3 Zrotation Xrotation Yrotation
					JOINT RightArm
					{
						OFFSET -14.369100 0.000000 0.000000
						CHANNELS 3 Zrotation Xrotation Yrotation
						JOINT RightForeArm
						{
							OFFSET 0.000000 -27.196400 0.000000
							CHANNELS 3 Zrotation Xrotation Yrotation
							JOINT RightHand
							{
								OFFSET 0.000000 -24.849000 0.000000
								CHANNELS 3 Zrotation Xrotation Yrotation
								JOINT RightFinger0
								{
									OFFSET 0.000000 -7.367300 0.000000
									CHANNELS 3 Zrotation Xrotation Yrotation
									End Site
									{
									    OFFSET 0.000000 -5.000000 0.000000
									}
								}
							}
						}
					}
				}
				JOINT Neck
				{
					OFFSET 0.000000 14.330100 0.000000
					CHANNELS 3 Zrotation Xrotation Yrotation
					JOINT Head
					{
						OFFSET 0.000000 8.944300 0.000000
						CHANNELS 3 Zrotation Xrotation Yrotation
						JOINT HeadTip
						{
							OFFSET 0.000000 10.000000 0.000000
							CHANNELS 3 Zrotation Xrotation Yrotation
							End Site
							{
							    OFFSET 0.000000 5.000000 0.000000
							}
						}
					}
				}
			}
		}
	}
}
MOTION
Frames:	8
Frame Time:	0.033332
-2.760200 87.381400 -65.570000 -1.593809 -4.313633 -45.201688 -15.678253 -13.168049 -16.870948 -0.000000 17.613359 -0.000000 1.132975 -38.130246 -25.621833 -0.000000 6.229584 -0.000000 -0.000000 0.000000 -0.000000 5.461370 -0.967585 9.092601 -0.000000 16.641479 -0.000000 -5.948725 -57.787989 -9.402529 -0.000000 1.497760 -0.000000 0.000000 0.000000 0.000000 -3.589613 8.376716 -2.155173 0.000000 6.916003 0.000000 -0.000000 0.000000 -0.000000 -9.945734 -0.000000 8.634923 42.661289 -4.336136 -10.775997 -0.000000 -70.413521 0.000000 -3.225362 9.125025 -34.588925 -0.000000 0.000000 -0.000000 11.794726 0.000000 0.912605 -32.514459 -4.477816 16.436884 -0.000169 -47.955366 -0.000075 9.904982 8.681399 9.731806 -0.000000 0.000000 0.000000 -0.000000 0.000000 -0.000000 0.900717 2.558662 -36.667213 -0.000000 -0.000000 -0.000000 
-4.483100 87.384800 -65.972400 -2.154765 -4.151464 -44.467325 -14.603181 -13.092230 -17.469888 -0.000000 19.762656 -0.000000 0.004622 -39.528613 -25.592418 -0.000000 6.431060 -0.000000 -0.000000 0.000000 -0.000000 6.916767 -0.476656 8.392012 -0.000000 17.033792 -0.000000 -5.643023 -57.593607 -8.911582 -0.000000 0.874263 0.000000 -0.000000 0.000000 0.000000 -2.397962 8.470436 -2.334847 -0.000000 6.992040 -0.000000 -0.000000 0.000000 0.000000 -9.890592 -0.000000 8.732047 40.977325 -3.464781 -10.013928 -0.000000 -71.004346 0.000000 -3.206190 9.384417 -34.749150 0.000000 0.000000 -0.000000 11.595336 -0.000000 0.731511 -32.713772 -4.658604 17.585776 -0.000170 -48.123952 -0.000076 10.152533 9.018663 10.201565 -0.000000 0.000000 -0.000000 -0.000000 0.000000 0.000000 0.628447 2.623276 -36.215139 -0.000000 -0.000000 -0.000000 
-6.138600 87.451600 -66.456900 -2.358984 -3.820293 -43.633936 -13.274829 -12.807621 -17.362461 0.000000 20.641618 -0.000000 -1.929689 -40.841743 -26.854871 -0.000000 5.848679 -0.000000 -0.000000 -0.000000 0.000000 8.324327 -0.540232 8.472718 0.000000 17.513198 0.000000 -5.623326 -56.600184 -9.174753 -0.000000 -0.223945 0.000000 -0.000000 0.000000 -0.000000 -1.460588 8.384579 -2.392895 0.000000 6.954368 0.000000 0.000000 -0.000000 -0.000000 -10.005243 -0.000000 8.857885 39.482565 -2.445584 -9.545304 0.000000 -71.948729 -0.000000 -3.413670 9.277843 -34.807613 -0.000000 0.000000 -0.000000 11.941835 -0.000000 0.486777 -33.584521 -4.661089 18.692996 -0.000173 -48.731870 -0.000078 10.301865 8.895788 10.351202 -0.000000 -0.000000 -0.000000 0.000000 -0.000000 -0.000000 0.970262 2.428581 -36.147180 -0.000000 0.000000 -0.000000 
-7.649100 87.638900 -66.960000 -2.292991 -3.516440 -42.526709 -12.125761 -12.261768 -17.329761 0.000000 20.633379 -0.000000 -3.670670 -41.746924 -28.295627 -0.000000 5.260161 0.000000 -0.000000 0.000000 -0.000000 9.432495 -1.049674 8.871681 -0.000000 18.071380 0.000000 -4.978915 -54.792131 -9.375402 -0.000000 -1.631868 -0.000000 0.000000 0.000000 0.000000 -0.732529 8.269928 -2.714890 -0.000000 6.893743 -0.000000 0.000000 0.000000 -0.000000 -10.413861 0.000000 8.982348 38.408019 -1.411111 -9.547544 -0.000000 -72.867205 -0.000000 -3.307168 8.942041 -33.926779 -0.000000 0.000000 -0.000000 12.406619 -0.000000 0.407824 -34.568118 -4.747328 19.469149 -0.000175 -49.074721 -0.000080 10.255450 8.623787 10.182529 0.000000 0.000000 -0.000000 0.000000 0.000000 -0.000000 1.484502 2.166148 -35.889099 -0.000000 -0.000000 -0.000000 
-9.049300 87.910000 -67.470800 -2.106163 -3.266020 -41.354832 -11.061196 -11.575096 -17.263688 0.000000 20.074482 -0.000000 -5.395518 -42.227001 -29.919480 -0.000000 4.905238 0.000000 -0.000000 0.000000 -0.000000 10.341718 -1.756744 9.166719 0.000000 18.617308 -0.000000 -4.116869 -52.420978 -9.467096 -0.000000 -2.947008 -0.000000 -0.000000 0.000000 -0.000000 -0.130171 8.161504 -2.969694 -0.000000 6.898540 -0.000000 -0.000000 0.000000 -0.000000 -10.478333 0.000000 9.011189 37.102690 -0.464448 -10.066355 -0.000000 -73.467804 -0.000000 -3.531243 9.110475 -33.775208 -0.000000 0.000000 0.000000 12.431236 0.000000 0.222349 -34.920433 -5.064159 19.875330 -0.000176 -49.100133 -0.000080 10.463395 8.731971 10.310894 0.000000 -0.000000 -0.000000 -0.000000 0.000000 -0.000000 1.881515 1.835598 -35.822383 -0.000000 0.000000 -0.000000 
-10.310200 88.195300 -68.002200 -1.806425 -3.144428 -40.184563 -10.228488 -10.867268 -17.590655 0.000000 19.289735 -0.000000 -7.077845 -42.446100 -31.069311 -0.000000 4.598333 -0.000000 -0.000000 -0.000000 -0.000000 11.023457 -2.556710 9.060574 -0.000000 19.123980 -0.000000 -3.141262 -49.784534 -9.303493 0.000000 -4.079397 -0.000000 -0.000000 0.000000 0.000000 0.323310 8.200324 -3.021212 0.000000 6.936357 -0.000000 -0.000000 0.000000 -0.000000 -10.421966 -0.000000 8.901554 36.054997 0.313808 -11.154884 0.000000 -74.008305 -0.000000 -4.074265 9.402348 -34.328751 -0.000000 -0.000000 -0.000000 12.148214 -0.000000 0.118156 -34.934487 -5.312905 19.792720 -0.000176 -49.147798 -0.000080 10.230720 8.971881 10.876000 -0.000000 0.000000 -0.000000 -0.000000 0.000000 -0.000000 1.955966 1.405460 -36.102076 0.000000 -0.000000 -0.000000 
-11.435100 88.437000 -68.550700 -1.431545 -3.067233 -39.238951 -9.568289 -10.384189 -17.767591 0.000000 18.645471 -0.000000 -8.352655 -42.677784 -32.066461 -0.000000 4.290520 -0.000000 -0.000000 0.000000 -0.000000 11.555393 -3.469829 8.969699 0.000000 19.755537 -0.000000 -2.300683 -47.297234 -8.978912 -0.000000 -4.886411 -0.000000 -0.000000 0.000000 -0.000000 0.692923 8.339274 -2.772059 0.000000 6.995305 -0.000000 -0.000000 -0.000000 -0.000000 -10.510098 -0.000000 8.712493 35.579176 0.956345 -12.650200 0.000000 -74.589506 -0.000000 -4.474333 9.234662 -34.702664 0.000000 0.000000 -0.000000 11.830257 0.000000 0.138454 -35.024978 -5.625526 19.644639 -0.000177 -49.321605 -0.000081 10.409165 8.791418 10.405960 -0.000000 -0.000000 -0.000000 -0.000000 -0.000000 -0.000000 1.768492 0.931782 -36.479123 -0.000000 0.000000 -0.000000 
-12.468500 88.613200 -69.106900 -1.061750 -3.009452 -38.550619 -9.063223 -10.174567 -18.262134 -0.000000 18.362209 0.000000 -9.196452 -42.987133 -32.319032 0.000000 3.953318 0.000000 -0.000000 -0.000000 0.000000 12.011149 -4.386567 8.859867 -0.000000 20.459033 -0.000000 -1.564508 -44.956052 -8.323009 -0.000000 -5.410921 0.000000 -0.000000 0.000000 0.000000 0.993560 8.512551 -2.374757 0.000000 7.081498 0.000000 0.000000 0.000000 0.000000 -10.576360 0.000000 8.676127 35.351008 1.353789 -14.304017 -0.000000 -75.149718 0.000000 -4.845386 9.296677 -34.441787 0.000000 0.000000 0.000000 11.501842 -0.000000 0.284143 -35.271465 -6.179466 19.715541 -0.000177 -49.360056 -0.000081 10.241651 8.769502 10.475339 0.000000 0.000000 0.000000 0.000000 0.000000 0.000000 1.441672 0.651879 -36.749116 -0.000000 0.000000 -0.000000 
